Coordinates
version=1
nRows=8
nColumns=34
inDegrees=yes

Units are S.I. units (second, meters, Newtons, ...)
If the header above contains a line with 'inDegrees', this indicates whether rotational values are in degrees (yes) or radians (no).

endheader
time	pelvis_tilt	pelvis_list	pelvis_rotation	pelvis_tx	pelvis_ty	pelvis_tz	hip_flexion_r	hip_adduction_r	hip_rotation_r	knee_angle_r	ankle_angle_r	subtalar_angle_r	mtp_angle_r	hip_flexion_l	hip_adduction_l	hip_rotation_l	knee_angle_l	ankle_angle_l	subtalar_angle_l	mtp_angle_l	lumbar_extension	lumbar_bending	lumbar_rotation	arm_flex_r	arm_add_r	arm_rot_r	elbow_flex_r	pro_sup_r	arm_flex_l	arm_add_l	arm_rot_l	elbow_flex_l	pro_sup_l
      1.80000000	     -3.62910667	      1.59787749	     -3.91902638	      1.76777784	      0.88661855	     -0.05785310	      2.76278148	     -7.46226942	     -0.97369070	      1.27545754	      0.36385804	    -21.39808396	      0.00000000	      3.19809605	     -2.19799084	     -0.46464340	      3.41222696	      4.71060933	     -6.25832810	      0.00000000	     -8.27774240	      0.62681154	     -0.46337641	     18.66281848	     -3.18772262	     25.71342368	     80.92281691	     89.54640080	     13.10086472	     -6.09095757	     28.46392182	     72.38019102	     86.26032318
      1.81666670	     -3.62929688	      1.50709606	     -3.88345077	      1.76747676	      0.88682385	     -0.06181303	      2.88163045	     -7.62393988	     -0.97886320	      1.41028617	      0.25863576	    -21.34829242	      0.00000000	      3.10145144	     -2.01105650	     -0.41595528	      3.24924214	      4.76546028	     -6.25993924	      0.00000000	     -8.38200784	      0.72718509	     -0.58111643	     18.44279317	     -3.36688583	     25.64979995	     80.83675052	     89.53517263	     13.06593891	     -6.16021290	     28.47308191	     72.36922021	     86.25465235
      1.83333330	     -3.59597916	      1.50021696	     -3.82149567	      1.76719215	      0.88631284	     -0.06603170	      2.97151756	     -7.86664228	     -1.29697928	      1.60288509	      0.00707061	    -21.22811373	      0.00000000	      2.71118626	     -1.72831447	     -0.03123055	      2.57709502	      4.72008764	     -6.18940574	      0.00000000	     -8.30079023	      0.51184837	     -0.61347080	     17.90836572	     -3.38480524	     25.25577538	     80.72441853	     89.45098765	     12.90579315	     -6.36209193	     28.62451589	     72.51065807	     86.21878137
      1.85000000	     -3.54880700	      1.36213808	     -3.71960504	      1.76640019	      0.88599091	     -0.07023361	      3.06031411	     -7.97229981	     -1.27020204	      1.78471231	     -0.10731554	    -21.13770327	      0.00000000	      2.61728199	     -1.61225774	      0.01176511	      2.42772197	      4.76859460	     -6.20584787	      0.00000000	     -8.43049178	      0.57531912	     -0.69032777	     17.51779521	     -3.42234289	     25.26714997	     80.64794492	     89.44134837	     12.83189386	     -6.48043140	     28.64597749	     72.49601127	     86.21389477
      1.86666670	     -3.43703613	      1.27885395	     -3.63388693	      1.76670790	      0.88507346	     -0.07328334	      3.02400119	     -8.14602729	     -1.78281533	      1.94205134	     -0.07870337	    -20.58164070	      0.00000000	      2.19824412	     -1.43542619	      0.52785691	      1.82535200	      4.54416859	     -6.49210717	      0.00000000	     -8.50981515	      0.40013752	     -0.68454864	     16.38404216	     -3.05526567	     24.36251299	     81.11916890	     89.16041206	     12.73106221	     -6.96135810	     29.30553266	     73.08308589	     86.09320480
      1.88333330	     -3.35951408	      1.14464195	     -3.50725424	      1.76707963	      0.88386410	     -0.07584667	      3.08183169	     -8.26117931	     -1.74664093	      2.20615446	     -0.17268429	    -20.50968656	      0.00000000	      2.07036917	     -1.33009505	      0.55475263	      1.66917790	      4.66793679	     -6.54112070	      0.00000000	     -8.60263673	      0.45351906	     -0.74146815	     15.89554689	     -3.04459759	     24.48378604	     81.06778808	     89.15648166	     12.60631538	     -7.02902643	     29.34704013	     73.04272118	     86.08740831
      1.90000000	     -3.26759744	      1.05161234	     -3.58000061	      1.76815703	      0.88258478	     -0.07802980	      3.13877650	     -8.40772424	     -1.94184037	      2.52819485	     -0.19296527	    -20.48695360	      0.00000000	      1.66209440	     -1.20999579	      0.78105964	      1.20258029	      4.92726794	     -6.63161956	      0.00000000	     -8.44624503	      0.30126034	     -0.78810903	     15.01543543	     -2.91166117	     24.72119170	     81.22216462	     89.12839525	     12.25612721	     -7.24814439	     29.50029794	     73.01365643	     86.06526495
      1.91666670	     -3.19908319	      0.96272813	     -3.50329150	      1.76890807	      0.88162558	     -0.08084025	      3.14748772	     -8.56351165	     -2.03938081	      2.81351035	     -0.16993146	    -20.41488031	      0.00000000	      1.40651810	     -1.09561101	      0.90391482	      0.93104471	      5.00281726	     -6.76362394	      0.00000000	     -8.34995178	      0.18102271	     -0.90329436	     14.13055760	     -2.89422660	     24.89690062	     81.44157861	     89.08028435	     11.87779740	     -7.43259283	     29.70920518	     73.04962204	     86.03587200
